<svg width="378" height="125" viewBox="0 0 378 125" fill="none" xmlns="http://www.w3.org/2000/svg">
<g clip-path="url(#clip0_38_3)">
<path d="M103.516 111.328H115.234L115.234 42.9688H103.516L103.516 111.328Z" fill="#00DA6E" stroke="#00DA6E" stroke-width="4" stroke-linecap="round" stroke-linejoin="round"/>
<path d="M80.0781 111.328H91.7969V64.4531H80.0781V111.328Z" fill="#00DA6E" stroke="#00DA6E" stroke-width="4" stroke-linecap="round" stroke-linejoin="round"/>
<path d="M56.6406 111.328H68.3594V78.125H56.6406V111.328Z" fill="#00DA6E" stroke="#00DA6E" stroke-width="4" stroke-linecap="round" stroke-linejoin="round"/>
<path d="M33.2031 111.328H44.9219V85.9375H33.2031V111.328Z" fill="#00DA6E" stroke="#00DA6E" stroke-width="4" stroke-linecap="round" stroke-linejoin="round"/>
<path d="M9.76562 111.328H21.4844L21.4844 89.8438H9.76563L9.76562 111.328Z" fill="#00DA6E" stroke="#00DA6E" stroke-width="4" stroke-linecap="round" stroke-linejoin="round"/>
<path d="M12.168 76.6602C50.7813 82.0312 97.6563 56.6406 101.563 23.4375" stroke="#00DA6E" stroke-width="4" stroke-linecap="round" stroke-linejoin="round"/>
<path d="M93.75 23.3984L109.375 23.4766L101.602 13.6719L93.75 23.3984Z" stroke="#00DA6E" stroke-width="4" stroke-linecap="round" stroke-linejoin="round"/>
</g>
<path d="M154.68 91V31.56H166.96V58.6L187.64 31.56H201.52L178.6 60.56L176.12 62.64L165.16 75.44L166.96 67.12V91H154.68ZM185.88 86.4C184.84 84.48 183.733 82.5467 182.56 80.6C181.387 78.6267 180.187 76.68 178.96 74.76C177.76 72.84 176.573 70.9867 175.4 69.2C174.227 67.4133 173.12 65.72 172.08 64.12L176.52 59.88L180.36 55.52C181.027 56.4267 181.933 57.7733 183.08 59.56C184.253 61.32 185.56 63.3467 187 65.64C188.467 67.9333 189.973 70.32 191.52 72.8C193.067 75.28 194.56 77.72 196 80.12C197.44 82.52 198.733 84.7067 199.88 86.68C200.173 87.16 200.453 87.64 200.72 88.12C201.013 88.6 201.293 89.08 201.56 89.56C201.853 90.04 202.147 90.52 202.44 91H188.32C187.973 90.4667 187.64 89.88 187.32 89.24C187.027 88.5733 186.547 87.6267 185.88 86.4ZM219.664 91.64C216.838 91.64 214.358 91.0667 212.224 89.92C210.091 88.7733 208.424 87.1733 207.224 85.12C206.051 83.0667 205.464 80.68 205.464 77.96C205.464 75.24 206.198 72.9067 207.664 70.96C209.158 69.0133 211.171 67.4933 213.704 66.4C215.438 65.68 217.331 65.12 219.384 64.72C221.464 64.32 223.531 64.04 225.584 63.88C227.664 63.72 229.598 63.64 231.384 63.64L233.424 66.16L231.384 70.08C230.424 70.08 229.344 70.1467 228.144 70.28C226.944 70.4133 225.784 70.6133 224.664 70.88C223.571 71.12 222.651 71.4 221.904 71.72C220.864 72.2 219.931 72.84 219.104 73.64C218.304 74.44 217.904 75.6667 217.904 77.32C217.904 79.48 218.504 81.08 219.704 82.12C220.904 83.1333 222.451 83.64 224.344 83.64C225.331 83.64 226.304 83.5067 227.264 83.24C228.251 82.9733 229.118 82.6667 229.864 82.32C230.611 81.9467 231.118 81.6 231.384 81.28L233.504 83.8L232.024 87.24C230.824 88.3067 229.171 89.3067 227.064 90.24C224.984 91.1733 222.518 91.64 219.664 91.64ZM243.584 91H232.024V84.36H231.384V60.36C231.384 58.0933 230.784 56.6133 229.584 55.92C228.384 55.2 226.664 54.84 224.424 54.84C222.744 54.84 220.984 54.9867 219.144 55.28C217.331 55.5733 215.611 55.96 213.984 56.44C212.358 56.92 210.998 57.44 209.904 58L207.264 50.32C208.171 49.7867 209.584 49.16 211.504 48.44C213.424 47.72 215.624 47.0933 218.104 46.56C220.584 46 223.078 45.72 225.584 45.72C229.691 45.72 233.064 46.2 235.704 47.16C238.371 48.12 240.344 49.7467 241.624 52.04C242.931 54.3333 243.584 57.5067 243.584 61.56V91ZM255.568 91V46.48H266.648L266.848 51.48C267.861 50.6267 269.155 49.7733 270.728 48.92C272.301 48.04 274.035 47.3067 275.928 46.72C277.848 46.1333 279.781 45.8267 281.728 45.8C286.368 45.6933 289.781 46.9333 291.968 49.52C294.155 52.08 295.248 56.5867 295.248 63.04V91H283.008V64.76C283.008 61.2933 282.555 58.8667 281.648 57.48C280.741 56.0933 278.968 55.4533 276.328 55.56C275.528 55.5867 274.621 55.7333 273.608 56C272.621 56.24 271.608 56.6133 270.568 57.12C269.555 57.6 268.608 58.2 267.728 58.92V91H255.568ZM335.129 91V85.44L334.249 84.84V54.64L334.569 54.36L334.249 43.08V26H346.329V91H335.129ZM322.009 91.64C318.862 91.64 315.955 90.8667 313.289 89.32C310.649 87.7467 308.515 85.3867 306.889 82.24C305.262 79.0933 304.449 75.1067 304.449 70.28C304.449 65.3467 305.382 61.0533 307.249 57.4C309.115 53.72 311.729 50.88 315.089 48.88C318.449 46.88 322.395 45.88 326.929 45.88C329.675 45.88 331.929 46.1733 333.689 46.76C335.475 47.3467 336.622 47.84 337.129 48.24L334.289 55.96C333.622 55.4 332.675 55.0133 331.449 54.8C330.222 54.56 328.822 54.44 327.249 54.44C325.329 54.44 323.595 55 322.049 56.12C320.529 57.2133 319.315 58.88 318.409 61.12C317.529 63.3333 317.089 66.1067 317.089 69.44C317.035 74.0533 317.795 77.36 319.369 79.36C320.969 81.36 323.155 82.36 325.929 82.36C327.635 82.36 329.235 82.0667 330.729 81.48C332.249 80.8933 333.435 80.2933 334.289 79.68L335.769 85.76C335.155 86.4267 334.275 87.2267 333.129 88.16C331.982 89.0667 330.502 89.88 328.689 90.6C326.875 91.2933 324.649 91.64 322.009 91.64ZM358.769 91V26H371.009V91H358.769Z" fill="#00DA6E"/>
<defs>
<clipPath id="clip0_38_3">
<rect width="125" height="125" fill="white"/>
</clipPath>
</defs>
</svg>
