<svg width="230" height="101" viewBox="0 0 230 101" fill="none" xmlns="http://www.w3.org/2000/svg">
<path d="M6.68 79V19.56H18.96V46.6L39.64 19.56H53.52L30.6 48.56L28.12 50.64L17.16 63.44L18.96 55.12V79H6.68ZM37.88 74.4C36.84 72.48 35.7333 70.5467 34.56 68.6C33.3867 66.6267 32.1867 64.68 30.96 62.76C29.76 60.84 28.5733 58.9867 27.4 57.2C26.2267 55.4133 25.12 53.72 24.08 52.12L28.52 47.88L32.36 43.52C33.0267 44.4267 33.9333 45.7733 35.08 47.56C36.2533 49.32 37.56 51.3467 39 53.64C40.4667 55.9333 41.9733 58.32 43.52 60.8C45.0667 63.28 46.56 65.72 48 68.12C49.44 70.52 50.7333 72.7067 51.88 74.68C52.1733 75.16 52.4533 75.64 52.72 76.12C53.0133 76.6 53.2933 77.08 53.56 77.56C53.8533 78.04 54.1467 78.52 54.44 79H40.32C39.9733 78.4667 39.64 77.88 39.32 77.24C39.0267 76.5733 38.5467 75.6267 37.88 74.4ZM71.6644 79.64C68.8377 79.64 66.3577 79.0667 64.2244 77.92C62.091 76.7733 60.4244 75.1733 59.2244 73.12C58.051 71.0667 57.4644 68.68 57.4644 65.96C57.4644 63.24 58.1977 60.9067 59.6644 58.96C61.1577 57.0133 63.171 55.4933 65.7044 54.4C67.4377 53.68 69.331 53.12 71.3844 52.72C73.4644 52.32 75.531 52.04 77.5844 51.88C79.6644 51.72 81.5977 51.64 83.3844 51.64L85.4244 54.16L83.3844 58.08C82.4244 58.08 81.3444 58.1467 80.1444 58.28C78.9444 58.4133 77.7844 58.6133 76.6644 58.88C75.571 59.12 74.651 59.4 73.9044 59.72C72.8644 60.2 71.931 60.84 71.1044 61.64C70.3044 62.44 69.9044 63.6667 69.9044 65.32C69.9044 67.48 70.5044 69.08 71.7044 70.12C72.9044 71.1333 74.451 71.64 76.3444 71.64C77.331 71.64 78.3044 71.5067 79.2644 71.24C80.251 70.9733 81.1177 70.6667 81.8644 70.32C82.611 69.9467 83.1177 69.6 83.3844 69.28L85.5044 71.8L84.0244 75.24C82.8244 76.3067 81.171 77.3067 79.0644 78.24C76.9844 79.1733 74.5177 79.64 71.6644 79.64ZM95.5844 79H84.0244V72.36H83.3844V48.36C83.3844 46.0933 82.7844 44.6133 81.5844 43.92C80.3844 43.2 78.6644 42.84 76.4244 42.84C74.7444 42.84 72.9844 42.9867 71.1444 43.28C69.331 43.5733 67.611 43.96 65.9844 44.44C64.3577 44.92 62.9977 45.44 61.9044 46L59.2644 38.32C60.171 37.7867 61.5844 37.16 63.5044 36.44C65.4244 35.72 67.6244 35.0933 70.1044 34.56C72.5844 34 75.0777 33.72 77.5844 33.72C81.691 33.72 85.0644 34.2 87.7044 35.16C90.371 36.12 92.3444 37.7467 93.6244 40.04C94.931 42.3333 95.5844 45.5067 95.5844 49.56V79ZM107.568 79V34.48H118.648L118.848 39.48C119.861 38.6267 121.155 37.7733 122.728 36.92C124.301 36.04 126.035 35.3067 127.928 34.72C129.848 34.1333 131.781 33.8267 133.728 33.8C138.368 33.6933 141.781 34.9333 143.968 37.52C146.155 40.08 147.248 44.5867 147.248 51.04V79H135.008V52.76C135.008 49.2933 134.555 46.8667 133.648 45.48C132.741 44.0933 130.968 43.4533 128.328 43.56C127.528 43.5867 126.621 43.7333 125.608 44C124.621 44.24 123.608 44.6133 122.568 45.12C121.555 45.6 120.608 46.2 119.728 46.92V79H107.568ZM187.129 79V73.44L186.249 72.84V42.64L186.569 42.36L186.249 31.08V14H198.329V79H187.129ZM174.009 79.64C170.862 79.64 167.955 78.8667 165.289 77.32C162.649 75.7467 160.515 73.3867 158.889 70.24C157.262 67.0933 156.449 63.1067 156.449 58.28C156.449 53.3467 157.382 49.0533 159.249 45.4C161.115 41.72 163.729 38.88 167.089 36.88C170.449 34.88 174.395 33.88 178.929 33.88C181.675 33.88 183.929 34.1733 185.689 34.76C187.475 35.3467 188.622 35.84 189.129 36.24L186.289 43.96C185.622 43.4 184.675 43.0133 183.449 42.8C182.222 42.56 180.822 42.44 179.249 42.44C177.329 42.44 175.595 43 174.049 44.12C172.529 45.2133 171.315 46.88 170.409 49.12C169.529 51.3333 169.089 54.1067 169.089 57.44C169.035 62.0533 169.795 65.36 171.369 67.36C172.969 69.36 175.155 70.36 177.929 70.36C179.635 70.36 181.235 70.0667 182.729 69.48C184.249 68.8933 185.435 68.2933 186.289 67.68L187.769 73.76C187.155 74.4267 186.275 75.2267 185.129 76.16C183.982 77.0667 182.502 77.88 180.689 78.6C178.875 79.2933 176.649 79.64 174.009 79.64ZM210.769 79V14H223.009V79H210.769Z" fill="#00DA6E"/>
</svg>
